<?xml version="1.0" encoding="utf-8"?>
<!-- Generator: Adobe Illustrator 19.1.0, SVG Export Plug-In . SVG Version: 6.00 Build 0)  -->
<svg version="1.1" id="Layer_1" xmlns="http://www.w3.org/2000/svg" xmlns:xlink="http://www.w3.org/1999/xlink" x="0px" y="0px"
	 viewBox="0 0 64 64" enable-background="new 0 0 64 64" xml:space="preserve" height="30px" width = "30px">
<g id="Pocket">
	<path d="M53.1728973,14.3506002C53.0331955,13.0107002,51.907299,12,50.5546989,12H43V6c0-3.3085999-2.6922989-6-6.0009003-6h-10
		C23.6914005,0,21,2.6914001,21,6v6h-7.5839005c-1.3681993,0-2.5049,1.0220003-2.6435995,2.3769999L6.0137,61.0312996
		c-0.0770998,0.7597008,0.1738,1.5205002,0.6884999,2.0830002C7.2149,63.6767998,7.9463,64,8.71,64h46.5116997
		c0.7812996,0,1.5312996-0.330101,2.0614967-0.9101982c0.5264015-0.5800018,0.7823029-1.3593025,0.7032013-2.1367035v-0.0009995
		L53.1728973,14.3506002z M23,6c0-2.2056,1.7940006-4,3.9990997-4h10C39.205101,2,41,3.7944,41,6v6H23V6z M55.8046989,61.7440987
		C55.6552963,61.9062996,55.4433975,62,55.2216988,62H8.71c-0.2020998,0-0.3936005-0.0839996-0.5292997-0.2333984
		c-0.1328001-0.1445007-0.1973004-0.3379021-0.1768007-0.5321999l4.7588005-46.6543007
		C12.7959003,14.2495003,13.0771999,14,13.4160995,14H21v5.1839008C19.8377991,19.5974007,19,20.6965008,19,22
		c0,1.6560993,1.3439999,3,3,3s3-1.3439007,3-3c0-1.3034992-0.8377991-2.4025002-2-2.8160992V14h18v5.1839008
		C39.8377991,19.5974007,39,20.6965008,39,22c0,1.6560993,1.3440018,3,3,3s3-1.3439007,3-3
		c0-1.3034992-0.8378029-2.4025002-2-2.8160992V14h7.5546989c0.3251991,0,0.5956993,0.2397003,0.6279984,0.5565996
		l4.8134003,46.5997009C56.0185966,61.3711014,55.9472961,61.5858994,55.8046989,61.7440987z"/>
	<path d="M38,53H26c-0.5527,0-1,0.4473-1,1s0.4473,1,1,1h12c0.5527992,0,1-0.4473,1-1S38.5527992,53,38,53z"/>
</g>
<g>
</g>
<g>
</g>
<g>
</g>
<g>
</g>
<g>
</g>
<g>
</g>
<g>
</g>
<g>
</g>
<g>
</g>
<g>
</g>
<g>
</g>
<g>
</g>
<g>
</g>
<g>
</g>
<g>
</g>
</svg>
